<svg xmlns="http://www.w3.org/2000/svg" viewBox="0 0 260 48" fill="none">
  <!-- Robot head -->
  <rect x="6" y="8" width="36" height="30" rx="8" fill="#00ee26" opacity="0.1"/>
  <rect x="6" y="8" width="36" height="30" rx="8" stroke="#00ee26" stroke-width="2.2"/>

  <!-- Antenna -->
  <line x1="24" y1="8" x2="24" y2="3" stroke="#00ee26" stroke-width="2.2" stroke-linecap="round"/>
  <circle cx="24" cy="2" r="2.5" fill="#00ee26"/>

  <!-- Ears -->
  <rect x="1" y="17" width="5" height="8" rx="2.5" fill="#00ee26" opacity="0.3"/>
  <rect x="42" y="17" width="5" height="8" rx="2.5" fill="#00ee26" opacity="0.3"/>

  <!-- Infinity eyes - proper lemniscate -->
  <path d="M16.5 20c0-1.8 1.5-3.2 3.2-3.2 1.8 0 3.2 1.4 3.2 3.2s-1.4 3.2-3.2 3.2" stroke="#00ee26" stroke-width="2" stroke-linecap="round"/>
  <path d="M22.9 20c0-1.8 1.5-3.2 3.2-3.2 1.8 0 3.2 1.4 3.2 3.2s-1.4 3.2-3.2 3.2" stroke="#00ee26" stroke-width="2" stroke-linecap="round"/>

  <!-- Smile -->
  <path d="M17.5 29.5a7 7 0 0 0 10 0" stroke="#00ee26" stroke-width="2" stroke-linecap="round" fill="none"/>

  <!-- Text -->
  <text x="54" y="24" font-family="Inter, system-ui, sans-serif" font-size="18" font-weight="700" fill="currentColor">InfinitePay</text>
  <text x="54" y="40" font-family="Inter, system-ui, sans-serif" font-size="11" font-weight="600" fill="#00ee26" letter-spacing="2">AGENT</text>
</svg>
