<svg xmlns="http://www.w3.org/2000/svg" viewBox="0 0 48 48" fill="none">
  <!-- Background -->
  <rect x="4" y="10" width="40" height="32" rx="10" fill="#00ee26"/>

  <!-- Ears -->
  <rect x="0" y="20" width="5" height="10" rx="2.5" fill="#00ee26"/>
  <rect x="43" y="20" width="5" height="10" rx="2.5" fill="#00ee26"/>

  <!-- Antenna -->
  <line x1="24" y1="10" x2="24" y2="4" stroke="#00ee26" stroke-width="3" stroke-linecap="round"/>
  <circle cx="24" cy="3" r="3.5" fill="#00ee26"/>

  <!-- Infinity eyes -->
  <path d="M14.5 23c0-2.2 1.8-4 4-4s4 1.8 4 4-1.8 4-4 4" stroke="white" stroke-width="2.8" stroke-linecap="round"/>
  <path d="M22.5 23c0-2.2 1.8-4 4-4s4 1.8 4 4-1.8 4-4 4" stroke="white" stroke-width="2.8" stroke-linecap="round"/>

  <!-- Smile -->
  <path d="M16 33a9 9 0 0 0 13 0" stroke="white" stroke-width="2.8" stroke-linecap="round" fill="none"/>
</svg>
