<svg xmlns="http://www.w3.org/2000/svg" viewBox="0 0 96 96" width="48" height="48" fill="none">
  <!-- Robot head -->
  <rect x="12" y="18" width="72" height="60" rx="16" fill="#00ee26" opacity="0.1"/>
  <rect x="12" y="18" width="72" height="60" rx="16" stroke="#00ee26" stroke-width="4.4"/>
  <!-- Antenna -->
  <line x1="48" y1="18" x2="48" y2="8" stroke="#00ee26" stroke-width="4.4" stroke-linecap="round"/>
  <circle cx="48" cy="6" r="5" fill="#00ee26"/>
  <!-- Ears -->
  <rect x="2" y="36" width="10" height="16" rx="5" fill="#00ee26" opacity="0.3"/>
  <rect x="84" y="36" width="10" height="16" rx="5" fill="#00ee26" opacity="0.3"/>
  <!-- Infinity eyes -->
  <path d="M30 42c0-3.6 3-6.4 6.4-6.4 3.4 0 6.4 2.8 6.4 6.4s-2.8 6.4-6.4 6.4" stroke="#00ee26" stroke-width="4" stroke-linecap="round"/>
  <path d="M42.8 42c0-3.6 3-6.4 6.4-6.4 3.4 0 6.4 2.8 6.4 6.4s-2.8 6.4-6.4 6.4" stroke="#00ee26" stroke-width="4" stroke-linecap="round"/>
  <!-- Smile -->
  <path d="M33 61a14 14 0 0 0 20 0" stroke="#00ee26" stroke-width="4" stroke-linecap="round" fill="none"/>
</svg>
